HIERARCHY
ROOT Hips
{
	OFFSET 0.000000 0.000000 0.000000
	CHANNELS 6 Xposition Yposition Zposition Xrotation Yrotation Zrotation
	JOINT LeftUpLeg_virtual
	{
		OFFSET 0.000000 0.000000 0.000000
		CHANNELS 3 Xrotation Yrotation Zrotation
		JOINT LeftUpLeg
		{
			OFFSET 11.394100 -6.187798 -0.413800
			CHANNELS 3 Xrotation Yrotation Zrotation
			JOINT LeftLeg
			{
				OFFSET 0.430247 -32.302673 3.732800
				CHANNELS 3 Xrotation Yrotation Zrotation
				JOINT LeftFoot
				{
					OFFSET -0.430247 -48.264931 -6.423300
					CHANNELS 3 Xrotation Yrotation Zrotation
					JOINT LeftToeBase
					{
						OFFSET 4.230900 -16.068199 23.438400
						CHANNELS 3 Xrotation Yrotation Zrotation
						JOINT LeftToe_End
						{
							OFFSET 4.510700 0.695400 19.974600
							CHANNELS 3 Xrotation Yrotation Zrotation
							End Site
							{
								OFFSET 0 0 0
							}
						}
					}
				}
			}
		}
	}
	JOINT RightUpLeg_virtual
	{
		OFFSET 0.000000 0.000000 0.000000
		CHANNELS 3 Xrotation Yrotation Zrotation
		JOINT RightUpLeg
		{
			OFFSET -11.333700 -6.187798 -0.413800
			CHANNELS 3 Xrotation Yrotation Zrotation
			JOINT RightLeg
			{
				OFFSET -0.430392 -32.302628 3.733000
				CHANNELS 3 Xrotation Yrotation Zrotation
				JOINT RightFoot
				{
					OFFSET 0.430392 -48.264973 -6.423500
					CHANNELS 3 Xrotation Yrotation Zrotation
					JOINT RightToeBase
					{
						OFFSET -4.230900 -16.068199 23.438400
						CHANNELS 3 Xrotation Yrotation Zrotation
						JOINT RightToe_End
						{
							OFFSET -4.510700 0.695400 19.974600
							CHANNELS 3 Xrotation Yrotation Zrotation
							End Site
							{
								OFFSET 0 0 0
							}
						}
					}
				}
			}
		}
	}
	JOINT Spine_virtual
	{
		OFFSET 0.000000 0.000000 0.000000
		CHANNELS 3 Xrotation Yrotation Zrotation
		JOINT Spine
		{
			OFFSET -0.002400 12.777504 0.315300
			CHANNELS 3 Xrotation Yrotation Zrotation
			JOINT Spine1
			{
				OFFSET -0.002067 5.816869 0.032633
				CHANNELS 3 Xrotation Yrotation Zrotation
				JOINT Spine1_split
				{
					OFFSET -0.002067 5.816869 0.032633
					CHANNELS 3 Xrotation Yrotation Zrotation
					JOINT Spine2
					{
						OFFSET -0.002067 5.816869 0.032633
						CHANNELS 3 Xrotation Yrotation Zrotation
						JOINT Neck_virtual
						{
							OFFSET 0.000000 0.000000 0.000000
							CHANNELS 3 Xrotation Yrotation Zrotation
							JOINT Neck
							{
								OFFSET -0.003700 21.199493 -0.826900
								CHANNELS 3 Xrotation Yrotation Zrotation
								JOINT Head
								{
									OFFSET 0.000000 20.442200 4.834800
									CHANNELS 3 Xrotation Yrotation Zrotation
									JOINT HeadTop_End
									{
										OFFSET 0.000000 34.668396 4.968400
										CHANNELS 3 Xrotation Yrotation Zrotation
										End Site
										{
											OFFSET 0 0 0
										}
									}
								}
							}
						}
						JOINT LeftShoulder_virtual
						{
							OFFSET 0.000000 0.000000 0.000000
							CHANNELS 3 Xrotation Yrotation Zrotation
							JOINT LeftShoulder
							{
								OFFSET 3.288150 8.794197 -1.372250
								CHANNELS 3 Xrotation Yrotation Zrotation
								JOINT LeftShoulder_split
								{
									OFFSET 3.288150 8.794197 -1.372250
									CHANNELS 3 Xrotation Yrotation Zrotation
									JOINT LeftArm
									{
										OFFSET 11.953299 -2.279007 -0.146200
										CHANNELS 3 Xrotation Yrotation Zrotation
										JOINT LeftForeArm
										{
											OFFSET 18.448900 0.000000 0.000000
											CHANNELS 3 Xrotation Yrotation Zrotation
											JOINT LeftHand
											{
												OFFSET 29.527798 0.000000 0.000000
												CHANNELS 3 Xrotation Yrotation Zrotation
												End Site
												{
													OFFSET 0 0 0
												}
											}
										}
									}
								}
							}
						}
						JOINT RightShoulder_virtual
						{
							OFFSET 0.000000 0.000000 0.000000
							CHANNELS 3 Xrotation Yrotation Zrotation
							JOINT RightShoulder
							{
								OFFSET -3.249400 8.794197 -1.372250
								CHANNELS 3 Xrotation Yrotation Zrotation
								JOINT RightShoulder_split
								{
									OFFSET -3.249400 8.794197 -1.372250
									CHANNELS 3 Xrotation Yrotation Zrotation
									JOINT RightArm
									{
										OFFSET -11.953299 -2.279007 -0.146200
										CHANNELS 3 Xrotation Yrotation Zrotation
										JOINT RightForeArm
										{
											OFFSET -18.448900 0.000000 0.000000
											CHANNELS 3 Xrotation Yrotation Zrotation
											JOINT RightHand
											{
												OFFSET -29.527802 0.000000 0.000000
												CHANNELS 3 Xrotation Yrotation Zrotation
												End Site
												{
													OFFSET 0 0 0
												}
											}
										}
									}
								}
							}
						}
					}
				}
			}
		}
	}
}
MOTION
Frames: 6
Frame Time: 0.03333333
0.011063 93.852692 -9.983875 0.000000 0.000000 0.000000 -2.839290 -36.366768 -0.738078 -37.356029 3.180992 11.913616 31.832308 -1.501449 1.312194 6.862580 -5.018707 -9.743652 1.990811 -0.626512 4.453589 0.000000 0.000000 0.000000 -2.708272 -35.747981 -0.723151 -3.345897 -21.412571 -13.030512 26.142904 8.491411 -2.969613 -21.317341 -17.845269 20.774101 4.737923 7.241290 -15.687288 0.000000 0.000000 0.000000 -2.656189 -28.851484 -1.763320 5.772464 4.717707 -1.709114 11.280354 5.602425 -2.358668 0.179997 -0.525823 0.088679 0.000000 0.000000 0.000000 12.410657 8.364003 -2.256192 -8.802672 4.819484 5.641837 -27.395607 3.000830 -3.039904 0.000000 0.000000 0.000000 9.717331 6.696680 -2.888056 2.872626 1.531453 -4.985513 0.941815 -3.109881 -0.784908 -19.912457 -2.121714 -61.857690 11.940637 -39.195177 4.846814 0.000000 0.000000 0.000000 11.564126 6.805866 -1.978405 0.722894 5.371853 10.422729 -7.582248 0.562027 0.849923 1.849662 -15.715328 58.563340 -18.254464 33.370173 14.167356 0.000000 0.000000 0.000000 
-0.024295 93.839180 -9.941113 0.000000 0.000000 0.000000 -2.857521 -36.337006 -0.730341 -37.338281 3.165257 11.906305 31.880489 -1.459363 1.320436 6.806475 -4.950084 -9.690689 2.092082 -0.618173 4.390399 0.000000 0.000000 0.000000 -2.680113 -35.716319 -0.704002 -3.339367 -21.318105 -13.052641 26.105227 8.508293 -2.975029 -21.279200 -17.843746 20.788147 4.768838 7.243271 -15.645470 0.000000 0.000000 0.000000 -2.681106 -28.928279 -1.751393 5.785630 4.699379 -1.731519 11.246364 5.589361 -2.355028 0.181865 -0.518186 0.087349 0.000000 0.000000 0.000000 12.396438 8.344799 -2.231412 -8.881138 4.844394 5.593314 -27.231320 3.060753 -3.083800 0.000000 0.000000 0.000000 9.688645 6.688424 -2.878183 2.884105 1.515781 -4.989907 0.969712 -3.152027 -0.776851 -19.974661 -2.119432 -61.854883 11.961526 -39.289700 4.890871 0.000000 0.000000 0.000000 11.555021 6.799956 -1.961269 0.753882 5.465105 10.399636 -7.576076 0.548656 0.850241 1.791349 -15.689815 58.610980 -18.217445 33.250642 14.140676 0.000000 0.000000 0.000000 
-0.051609 93.826340 -9.898769 0.000000 0.000000 0.000000 -2.870098 -36.437468 -0.713753 -37.245909 3.168716 11.894625 31.915326 -1.396298 1.348776 6.690983 -4.845419 -9.656137 2.204955 -0.605378 4.318729 0.000000 0.000000 0.000000 -2.675444 -35.792899 -0.680147 -3.348785 -21.251939 -13.070586 26.057580 8.546111 -3.000000 -21.278631 -17.838545 20.801526 4.872997 7.222357 -15.732219 0.000000 0.000000 0.000000 -2.736816 -29.091869 -1.742827 5.813308 4.658296 -1.755260 11.214914 5.540332 -2.341170 0.180927 -0.503960 0.086901 0.000000 0.000000 0.000000 12.364589 8.290290 -2.201731 -8.933547 4.893028 5.504158 -26.987003 3.416934 -2.962966 0.000000 0.000000 0.000000 9.665626 6.642598 -2.863923 2.892260 1.483020 -4.995285 0.978902 -3.188603 -0.790409 -19.946719 -2.101403 -61.847964 12.011915 -39.422513 4.941739 0.000000 0.000000 0.000000 11.554877 6.766728 -1.936121 0.779881 5.609763 10.352969 -7.544405 0.482269 0.820371 1.692047 -15.681734 58.692225 -18.125305 33.061466 14.048297 0.000000 0.000000 0.000000 
-0.078338 93.815918 -9.869213 0.000000 0.000000 0.000000 -2.889932 -36.658971 -0.689197 -37.130660 3.185192 11.883721 31.957871 -1.343806 1.394985 6.579620 -4.746329 -9.666650 2.284529 -0.592675 4.266201 0.000000 0.000000 0.000000 -2.679210 -35.931009 -0.645864 -3.367965 -21.221027 -13.076288 26.028406 8.586637 -3.040510 -21.298736 -17.832130 20.808719 5.017828 7.178764 -15.936184 0.000000 0.000000 0.000000 -2.814605 -29.319065 -1.737963 5.859640 4.594283 -1.777243 11.185213 5.455236 -2.320437 0.178136 -0.483689 0.089191 0.000000 0.000000 0.000000 12.322028 8.199607 -2.169465 -8.964730 4.967743 5.376564 -26.682003 4.065472 -2.689925 0.000000 0.000000 0.000000 9.643976 6.559112 -2.847267 2.895781 1.440110 -5.000701 0.942706 -3.208783 -0.809077 -19.839825 -2.047178 -61.849446 12.076659 -39.573481 4.990097 0.000000 0.000000 0.000000 11.558501 6.703552 -1.903154 0.803614 5.801248 10.283564 -7.513387 0.357236 0.778325 1.567296 -15.705571 58.786782 -17.994036 32.833184 13.906193 0.000000 0.000000 0.000000 
-0.103979 93.811180 -9.837521 0.000000 0.000000 0.000000 -2.921489 -36.956426 -0.660348 -37.019864 3.221225 11.875658 32.007742 -1.300598 1.452668 6.512120 -4.674152 -9.709032 2.331219 -0.582149 4.241324 0.000000 0.000000 0.000000 -2.700869 -36.114758 -0.612135 -3.392564 -21.219284 -13.065972 26.005426 8.620677 -3.089888 -21.300585 -17.819911 20.822516 5.124137 7.118128 -16.238725 0.000000 0.000000 0.000000 -2.906978 -29.570191 -1.736137 5.925368 4.508254 -1.793500 11.153586 5.334046 -2.298878 0.177396 -0.462345 0.089498 0.000000 0.000000 0.000000 12.272957 8.073409 -2.137223 -8.983804 5.071635 5.210505 -26.329604 4.975483 -2.283600 0.000000 0.000000 0.000000 9.622182 6.437131 -2.831921 2.892669 1.390305 -5.001302 0.868734 -3.202752 -0.845583 -19.688539 -1.955237 -61.857533 12.132341 -39.734263 5.019379 0.000000 0.000000 0.000000 11.561512 6.608492 -1.866375 0.826732 6.034481 10.202595 -7.485790 0.172991 0.749609 1.432904 -15.782580 58.870220 -17.844303 32.580194 13.734719 0.000000 0.000000 0.000000 
-0.127381 93.816391 -9.799416 0.000000 0.000000 0.000000 -2.960867 -37.273442 -0.631038 -36.926929 3.275038 11.857745 32.052961 -1.246661 1.516064 6.494409 -4.625749 -9.752558 2.391439 -0.571773 4.230065 0.000000 0.000000 0.000000 -2.742635 -36.323561 -0.587229 -3.408307 -21.227401 -13.034730 25.976063 8.638331 -3.144734 -21.284760 -17.794439 20.838994 5.178892 7.042083 -16.609369 0.000000 0.000000 0.000000 -2.991472 -29.831647 -1.734215 6.005128 4.403237 -1.799858 11.113870 5.178876 -2.284170 0.175115 -0.439829 0.086272 0.000000 0.000000 0.000000 12.225493 7.913604 -2.109493 -9.007383 5.202488 5.006863 -25.944981 6.128540 -1.772168 0.000000 0.000000 0.000000 9.598301 6.281158 -2.823821 2.883367 1.335681 -5.003629 0.804454 -3.183102 -0.873768 -19.507300 -1.822529 -61.868038 12.162607 -39.902546 5.018632 0.000000 0.000000 0.000000 11.561031 6.480314 -1.831679 0.847236 6.303032 10.121710 -7.443434 -0.018130 0.737720 1.299523 -15.917358 58.919165 -17.697691 32.318935 13.558324 0.000000 0.000000 0.000000 
